<svg width="196" height="55" viewBox="0 0 196 55" fill="none" xmlns="http://www.w3.org/2000/svg">
<path d="M27.378 0C12.2838 0 0 12.333 0 27.5C0 38.3992 6.35102 47.8422 15.5291 52.2892V52.306H15.5681C19.1479 54.0311 23.1514 55 27.378 55C42.4721 55 54.756 42.6614 54.756 27.5C54.756 12.3386 42.4721 0 27.378 0ZM27.378 2.25713C41.2343 2.25713 52.5089 13.582 52.5089 27.5C52.5089 31.499 51.5721 35.2795 49.9216 38.6456C46.3028 36.8814 42.6283 35.5708 38.9203 34.6859V13.6268C38.9203 12.8987 38.3404 12.305 37.6322 12.305H33.0265H21.4284H16.8227C16.109 12.305 15.5346 12.8987 15.5346 13.6268V34.7811C11.9381 35.6716 8.36396 36.9542 4.84552 38.6456C3.18946 35.2795 2.25268 31.499 2.25268 27.4944C2.2471 13.582 13.5217 2.25713 27.378 2.25713ZM6.28968 41.1996C9.26724 39.7154 12.3619 38.5784 15.5291 37.7943V49.752C11.7764 47.7301 8.59813 44.7729 6.28968 41.1996ZM21.4284 52.0204V23.8427C21.4284 20.5886 24.0882 17.8778 27.2665 17.8778C30.4448 17.8778 33.0265 20.5158 33.0265 23.7755C33.0265 23.7979 33.0209 23.8203 33.0209 23.8427H33.0265V33.6441C30.3165 33.336 27.5955 33.224 24.88 33.3697L22.6384 36.6293C26.1234 36.3325 29.5136 36.3605 32.8592 36.7357C32.8871 36.7413 32.9205 36.7413 32.9484 36.7413C32.9707 36.7413 32.993 36.747 33.0265 36.7526C33.6064 36.8198 35.7364 37.0942 37.6768 37.5815L33.0265 39.1665V52.0876C31.2087 52.5076 29.324 52.7373 27.3836 52.7373C25.326 52.7429 23.3354 52.4852 21.4284 52.0204ZM38.9203 49.9089V37.8447C42.0874 38.6456 45.2267 39.8162 48.3715 41.3508C46.0073 44.9521 42.7509 47.9094 38.9203 49.9089Z" fill="#14082E"/>
<path d="M69.8225 8.70377H77.7905C82.4465 8.70377 85.2567 11.4482 85.2567 15.4808V15.5368C85.2567 20.1014 81.7439 22.4202 77.3723 22.4202H74.1104V28.301H69.8169V8.70377H69.8225ZM77.5117 18.5836C79.6585 18.5836 80.9131 17.2954 80.9131 15.6152V15.5592C80.9131 13.6269 79.5748 12.5907 77.4281 12.5907H74.1104V18.5836H77.5117Z" fill="#14082E"/>
<path d="M88.6914 18.5612V18.5052C88.6914 12.9324 93.0685 8.37332 99.085 8.37332C105.107 8.37332 109.423 12.882 109.423 18.4492V18.5052C109.423 24.078 105.046 28.6371 99.0292 28.6371C93.0072 28.6371 88.6914 24.1284 88.6914 18.5612ZM104.94 18.5612V18.5052C104.94 15.1447 102.486 12.3443 99.0292 12.3443C95.5721 12.3443 93.1745 15.0887 93.1745 18.4436V18.4996C93.1745 21.8601 95.6279 24.6605 99.085 24.6605C102.542 24.6605 104.94 21.9161 104.94 18.5612Z" fill="#14082E"/>
<path d="M114.358 8.70377H118.317L127.456 20.7679V8.70377H131.694V28.301H128.041L118.596 15.8448V28.301H114.358V8.70377Z" fill="#14082E"/>
<path d="M142.037 12.6804H136.099V8.70377H152.263V12.6804H146.325V28.301H142.031V12.6804H142.037Z" fill="#14082E"/>
<path d="M156.668 8.70377H171.383V12.5403H160.934V16.5169H170.129V20.3535H160.934V24.4701H171.523V28.3066H156.668V8.70377Z" fill="#14082E"/>
<path d="M176.458 8.70377H181.086L186.215 16.993L191.345 8.70377H195.973V28.301H191.708V15.5088L186.215 23.8764H186.104L180.667 15.5872V28.2954H176.458V8.70377Z" fill="#14082E"/>
<path d="M69.8 37.1615H70.7646L76.5246 44.521V37.1615H77.5283V46.3468H76.703L70.7981 38.8137V46.3468H69.7944V37.1615H69.8Z" fill="#14082E"/>
<path d="M89.5278 37.1615H96.1353V38.108H90.5594V41.2445H95.5498V42.191H90.5594V45.4059H96.2022V46.3524H89.5278V37.1615Z" fill="#14082E"/>
<path d="M110.008 38.1192H106.925V37.1615H114.123V38.1192H111.04V46.3468H110.008V38.1192Z" fill="#14082E"/>
<path d="M124.707 37.1615H125.833L128.448 44.8122L130.957 37.1335H131.805L134.314 44.8122L136.929 37.1615H138.011L134.743 46.414H133.868L131.359 38.9594L128.838 46.414H127.974L124.707 37.1615Z" fill="#14082E"/>
<path d="M148.41 41.7765V41.7486C148.41 39.217 150.306 36.9991 153.088 36.9991C155.871 36.9991 157.739 39.189 157.739 41.7206V41.7486C157.739 44.2801 155.843 46.498 153.061 46.498C150.278 46.5036 148.41 44.3137 148.41 41.7765ZM156.668 41.7765V41.7486C156.668 39.6594 155.151 37.9568 153.061 37.9568C150.97 37.9568 149.481 39.6371 149.481 41.7206V41.7486C149.481 43.8377 150.997 45.5403 153.088 45.5403C155.174 45.5459 156.668 43.8657 156.668 41.7765Z" fill="#14082E"/>
<path d="M169.326 37.1615H173.257C174.394 37.1615 175.281 37.5031 175.855 38.08C176.312 38.5393 176.563 39.1554 176.563 39.8891V39.9171C176.563 41.4405 175.521 42.3422 174.082 42.5943L176.892 46.3468H175.626L172.972 42.7791H170.357V46.3468H169.326V37.1615ZM173.168 41.8438C174.528 41.8438 175.521 41.1324 175.521 39.9563V39.9283C175.521 38.7857 174.656 38.1192 173.184 38.1192H170.363V41.8438H173.168Z" fill="#14082E"/>
<path d="M188.178 37.1615H189.209V42.6447L194.462 37.1615H195.806L191.875 41.1773L195.962 46.3468H194.668L191.155 41.8998L189.209 43.8824V46.3524H188.178V37.1615Z" fill="#14082E"/>
</svg>
