<svg width="197" height="55" viewBox="0 0 197 55" fill="none" xmlns="http://www.w3.org/2000/svg">
<g clip-path="url(#clip0)">
<path d="M27.5037 0C12.3403 0 0 12.333 0 27.5C0 38.3992 6.38018 47.8422 15.6004 52.2892V52.306H15.6396C19.2358 54.0311 23.2577 55 27.5037 55C42.6672 55 55.0074 42.6614 55.0074 27.5C55.0074 12.3386 42.6672 0 27.5037 0ZM27.5037 2.25713C41.4236 2.25713 52.75 13.582 52.75 27.5C52.75 31.499 51.8089 35.2795 50.1509 38.6456C46.5154 36.8814 42.824 35.5708 39.099 34.6859V13.6268C39.099 12.8987 38.5164 12.305 37.805 12.305H33.1781H21.5268H16.8999C16.1829 12.305 15.606 12.8987 15.606 13.6268V34.7811C11.993 35.6716 8.40236 36.9542 4.86777 38.6456C3.2041 35.2795 2.26302 31.499 2.26302 27.4944C2.25742 13.582 13.5838 2.25713 27.5037 2.25713ZM6.31856 41.1996C9.3098 39.7154 12.4187 38.5784 15.6004 37.7943V49.752C11.8305 47.7301 8.63761 44.7729 6.31856 41.1996ZM21.5268 52.0204V23.8427C21.5268 20.5886 24.1988 17.8778 27.3917 17.8778C30.5846 17.8778 33.1781 20.5158 33.1781 23.7755C33.1781 23.7979 33.1725 23.8203 33.1725 23.8427H33.1781V33.6441C30.4557 33.336 27.7222 33.224 24.9942 33.3697L22.7424 36.6293C26.2434 36.3325 29.6491 36.3605 33.0101 36.7357C33.0381 36.7413 33.0717 36.7413 33.0997 36.7413C33.1221 36.7413 33.1445 36.747 33.1781 36.7526C33.7607 36.8198 35.9005 37.0942 37.8498 37.5815L33.1781 39.1665V52.0876C31.352 52.5076 29.4587 52.7373 27.5093 52.7373C25.4423 52.7429 23.4426 52.4852 21.5268 52.0204ZM39.099 49.9089V37.8447C42.2807 38.6456 45.4344 39.8162 48.5936 41.3508C46.2186 44.9521 42.9473 47.9094 39.099 49.9089Z" fill="url(#paint0_linear)"/>
<path d="M70.1428 8.70377H78.1474C82.8248 8.70377 85.648 11.4482 85.648 15.4808V15.5368C85.648 20.1014 82.119 22.4202 77.7273 22.4202H74.4504V28.301H70.1372V8.70377H70.1428ZM77.8674 18.5836C80.024 18.5836 81.2843 17.2954 81.2843 15.6152V15.5592C81.2843 13.6269 79.94 12.5907 77.7834 12.5907H74.4504V18.5836H77.8674Z" fill="white"/>
<path d="M89.0986 18.5612V18.5052C89.0986 12.9324 93.4958 8.37332 99.5399 8.37332C105.59 8.37332 109.925 12.882 109.925 18.4492V18.5052C109.925 24.078 105.528 28.6371 99.4839 28.6371C93.4342 28.6371 89.0986 24.1284 89.0986 18.5612ZM105.422 18.5612V18.5052C105.422 15.1447 102.957 12.3443 99.4839 12.3443C96.011 12.3443 93.6023 15.0887 93.6023 18.4436V18.4996C93.6023 21.8601 96.067 24.6605 99.5399 24.6605C103.013 24.6605 105.422 21.9161 105.422 18.5612Z" fill="white"/>
<path d="M114.883 8.70377H118.86L128.041 20.7679V8.70377H132.298V28.301H128.629L119.14 15.8448V28.301H114.883V8.70377Z" fill="white"/>
<path d="M142.689 12.6804H136.723V8.70377H152.962V12.6804H146.996V28.301H142.683V12.6804H142.689Z" fill="white"/>
<path d="M157.387 8.70377H172.17V12.5403H161.672V16.5169H170.909V20.3535H161.672V24.4701H172.31V28.3066H157.387V8.70377Z" fill="white"/>
<path d="M177.268 8.70377H181.917L187.07 16.993L192.224 8.70377H196.873V28.301H192.588V15.5088L187.07 23.8764H186.958L181.497 15.5872V28.2954H177.268V8.70377Z" fill="white"/>
<path d="M70.1204 37.1615H71.0894L76.8758 44.521V37.1615H77.8841V46.3468H77.0551L71.123 38.8137V46.3468H70.1147V37.1615H70.1204Z" fill="white"/>
<path d="M89.939 37.1615H96.5768V38.108H90.9752V41.2445H95.9886V42.191H90.9752V45.4059H96.644V46.3524H89.939V37.1615Z" fill="white"/>
<path d="M110.513 38.1192H107.416V37.1615H114.647V38.1192H111.549V46.3468H110.513V38.1192Z" fill="white"/>
<path d="M125.279 37.1615H126.411L129.038 44.8122L131.559 37.1335H132.41L134.931 44.8122L137.558 37.1615H138.645L135.362 46.414H134.483L131.962 38.9594L129.43 46.414H128.562L125.279 37.1615Z" fill="white"/>
<path d="M149.091 41.7765V41.7486C149.091 39.217 150.996 36.9991 153.791 36.9991C156.586 36.9991 158.463 39.189 158.463 41.7206V41.7486C158.463 44.2801 156.558 46.498 153.763 46.498C150.968 46.5036 149.091 44.3137 149.091 41.7765ZM157.387 41.7765V41.7486C157.387 39.6594 155.864 37.9568 153.763 37.9568C151.662 37.9568 150.167 39.6371 150.167 41.7206V41.7486C150.167 43.8377 151.69 45.5403 153.791 45.5403C155.886 45.5459 157.387 43.8657 157.387 41.7765Z" fill="white"/>
<path d="M170.103 37.1615H174.052C175.195 37.1615 176.085 37.5031 176.662 38.08C177.122 38.5393 177.374 39.1554 177.374 39.8891V39.9171C177.374 41.4405 176.326 42.3422 174.881 42.5943L177.704 46.3468H176.433L173.766 42.7791H171.139V46.3468H170.103V37.1615ZM173.963 41.8438C175.329 41.8438 176.326 41.1324 176.326 39.9563V39.9283C176.326 38.7857 175.458 38.1192 173.979 38.1192H171.145V41.8438H173.963Z" fill="white"/>
<path d="M189.042 37.1615H190.078V42.6447L195.355 37.1615H196.704L192.755 41.1773L196.861 46.3468H195.562L192.033 41.8998L190.078 43.8824V46.3524H189.042V37.1615Z" fill="white"/>
</g>
<defs>
<linearGradient id="paint0_linear" x1="27.5033" y1="56.1998" x2="27.5033" y2="-8.43253" gradientUnits="userSpaceOnUse">
<stop offset="0.0858" stop-color="#8D29C1"/>
<stop offset="0.2383" stop-color="#942BBB"/>
<stop offset="0.4667" stop-color="#A92FAC"/>
<stop offset="0.7413" stop-color="#CA3793"/>
<stop offset="1" stop-color="#F03F77"/>
</linearGradient>
<clipPath id="clip0">
<rect width="196.9" height="55" fill="white"/>
</clipPath>
</defs>
</svg>
