<svg width="96" height="96" viewBox="0 0 96 96" fill="none" xmlns="http://www.w3.org/2000/svg">
<path d="M48 0C21.5364 0 0 21.5267 0 48C0 67.024 11.1348 83.5063 27.2261 91.2684V91.2978H27.2945C33.5707 94.3088 40.5898 96 48 96C74.4636 96 96 74.4635 96 48C96 21.5364 74.4636 0 48 0ZM48 3.93971C72.2933 3.93971 92.0603 23.7067 92.0603 48C92.0603 54.98 90.4179 61.5788 87.5242 67.4542C81.1796 64.3747 74.7373 62.0872 68.2363 60.5426V23.7849C68.2363 22.5141 67.2196 21.4778 65.978 21.4778H57.9031H37.5691H29.4941C28.2428 21.4778 27.2358 22.5141 27.2358 23.7849V60.7088C20.9303 62.2631 14.664 64.5018 8.49532 67.4542C5.59186 61.5788 3.94947 54.98 3.94947 47.9902C3.9397 23.7067 23.7067 3.93971 48 3.93971ZM11.0273 71.912C16.2476 69.3214 21.6733 67.3369 27.2261 65.9682V86.8399C20.6468 83.3108 15.0745 78.1491 11.0273 71.912ZM37.5691 90.7992V41.6163C37.5691 35.9365 42.2322 31.2049 47.8045 31.2049C53.3768 31.2049 57.9031 35.8094 57.9031 41.499C57.9031 41.5381 57.8933 41.5772 57.8933 41.6163H57.9031V58.7242C53.1519 58.1866 48.3813 57.991 43.6204 58.2452L39.6904 63.9348C45.8004 63.4167 51.7442 63.4656 57.6098 64.1206C57.6587 64.1303 57.7173 64.1303 57.7662 64.1303C57.8053 64.1303 57.8444 64.1401 57.9031 64.1499C58.9198 64.2672 62.6542 64.7462 66.0562 65.5967L57.9031 68.3633V90.9165C54.7161 91.6497 51.4118 92.0505 48.0098 92.0505C44.4025 92.0603 40.9124 91.6106 37.5691 90.7992ZM68.2363 87.1136V66.0562C73.789 67.4542 79.2929 69.4974 84.8066 72.176C80.6615 78.4619 74.9524 83.6236 68.2363 87.1136Z" fill="url(#paint0_linear)"/>
<defs>
<linearGradient id="paint0_linear" x1="47.9993" y1="98.0942" x2="47.9993" y2="-14.7186" gradientUnits="userSpaceOnUse">
<stop offset="0.0858" stop-color="#8D29C1"/>
<stop offset="0.2383" stop-color="#942BBB"/>
<stop offset="0.4667" stop-color="#A92FAC"/>
<stop offset="0.7413" stop-color="#CA3793"/>
<stop offset="1" stop-color="#F03F77"/>
</linearGradient>
</defs>
</svg>
