<svg width="96" height="96" viewBox="0 0 96 96" fill="none" xmlns="http://www.w3.org/2000/svg">
<path d="M48 0C21.5281 0 0 21.5237 0 47.9902C0 67.0129 11.1284 83.4954 27.2204 91.2542V91.2935H27.2991C33.5626 94.3065 40.5942 96 48 96C74.4719 96 96 74.4763 96 48.0098C96 21.5237 74.4719 0 48 0ZM48 3.93846C72.2856 3.93846 92.0607 23.7095 92.0607 47.9902C92.0607 54.9612 90.4259 61.5778 87.5306 67.4462C81.1883 64.3742 74.7476 62.0898 68.2478 60.5342V23.7883C68.2478 22.5083 67.2433 21.4843 65.9828 21.4843H57.9073H37.5609H29.4854C28.2446 21.4843 27.2204 22.5083 27.2204 23.7883V60.7114C20.9175 62.2671 14.6541 64.512 8.48913 67.4658C5.57407 61.5778 3.93927 54.9809 3.93927 47.9902C3.93927 23.7095 23.7144 3.93846 48 3.93846ZM11.03 71.8966C16.2495 69.3169 21.666 67.328 27.24 65.9495V86.8234C20.6418 83.2985 15.0677 78.1391 11.03 71.8966ZM37.5609 90.7815V41.6098C37.5609 35.9188 42.229 31.2123 47.803 31.2123C53.3771 31.2123 57.9073 35.8203 57.9073 41.4917C57.9073 41.5311 57.8876 41.5705 57.8876 41.6098H57.9073V58.7225C53.1604 58.1711 48.3939 57.9938 43.6274 58.2498L39.7078 63.9409C45.8137 63.4289 51.762 63.4683 57.6315 64.1378C57.6906 64.1378 57.73 64.1378 57.7891 64.1575C57.8285 64.1575 57.8679 64.1575 57.927 64.1772C58.9512 64.2954 62.6738 64.768 66.0812 65.6148L57.927 68.3914V90.9391C54.7361 91.6677 51.4272 92.0812 48.0394 92.0812C44.3956 92.0418 40.9093 91.5889 37.5609 90.7815ZM68.2281 87.0991V66.048C73.7825 67.4462 79.2778 69.4942 84.7928 72.1723C80.6565 78.4542 74.9446 83.6135 68.2281 87.0991Z" fill="white"/>
</svg>
