<svg width="122" height="110" viewBox="0 0 122 110" fill="none" xmlns="http://www.w3.org/2000/svg">
<g clip-path="url(#clip0)">
<path d="M60.9808 0C44.6264 0 31.3169 13.3035 31.3169 29.6639C31.3169 41.4208 38.1982 51.6068 48.1426 56.4038V56.4219H48.1849C52.0635 58.2827 56.4013 59.3279 60.9808 59.3279C77.3353 59.3279 90.6448 46.0184 90.6448 29.6639C90.6448 13.3095 77.3353 0 60.9808 0ZM60.9808 2.43474C75.994 2.43474 88.21 14.6507 88.21 29.6639C88.21 33.9776 87.195 38.0556 85.4068 41.6866C81.4858 39.7835 77.5044 38.3698 73.4868 37.4152V14.6991C73.4868 13.9137 72.8585 13.2732 72.0912 13.2732H67.1009H54.5345H49.5442C48.7709 13.2732 48.1486 13.9137 48.1486 14.6991V37.5179C44.2518 38.4785 40.3792 39.862 36.567 41.6866C34.7727 38.0556 33.7577 33.9776 33.7577 29.6579C33.7516 14.6507 45.9676 2.43474 60.9808 2.43474ZM38.1317 44.4415C41.3579 42.8405 44.711 41.6141 48.1426 40.7683V53.667C44.0766 51.486 40.6329 48.296 38.1317 44.4415ZM54.5345 56.1138V25.7188C54.5345 22.2087 57.4163 19.2846 60.86 19.2846C64.3037 19.2846 67.1009 22.1301 67.1009 25.6463C67.1009 25.6705 67.0949 25.6946 67.0949 25.7188H67.1009V36.2915C64.1647 35.9592 61.2165 35.8384 58.2742 35.9955L55.8455 39.5116C59.6215 39.1914 63.2947 39.2216 66.9197 39.6264C66.9499 39.6325 66.9861 39.6325 67.0163 39.6325C67.0405 39.6325 67.0647 39.6385 67.1009 39.6446C67.7292 39.7171 70.0371 40.0131 72.1395 40.5387L67.1009 42.2485V56.1863C65.1314 56.6394 63.0893 56.8871 60.9869 56.8871C58.7575 56.8931 56.6007 56.6152 54.5345 56.1138ZM73.4868 53.8361V40.8226C76.9184 41.6866 80.3198 42.9493 83.7272 44.6047C81.1656 48.4894 77.6374 51.6793 73.4868 53.8361Z" fill="url(#paint0_linear)"/>
<path d="M0.026877 73.6507H7.72538C12.2238 73.6507 14.939 76.2901 14.939 80.1685V80.2224C14.939 84.6125 11.545 86.8426 7.32132 86.8426H4.16974V92.4986H0.0214844V73.6507H0.026877ZM7.45601 83.1527C9.53013 83.1527 10.7423 81.9138 10.7423 80.2978V80.2439C10.7423 78.3855 9.44934 77.389 7.37522 77.389H4.16974V83.1527H7.45601Z" fill="white"/>
<path d="M18.2578 83.1317V83.0779C18.2578 77.7182 22.4868 73.3335 28.2998 73.3335C34.1181 73.3335 38.2879 77.6697 38.2879 83.024V83.0779C38.2879 88.4376 34.0588 92.8222 28.2459 92.8222C22.4276 92.8222 18.2578 88.486 18.2578 83.1317ZM33.9565 83.1317V83.0779C33.9565 79.8459 31.5861 77.1526 28.2459 77.1526C24.9058 77.1526 22.5892 79.792 22.5892 83.0186V83.0725C22.5892 86.3044 24.9596 88.9978 28.2998 88.9978C31.6399 88.9978 33.9565 86.3583 33.9565 83.1317Z" fill="white"/>
<path d="M43.0557 73.6507H46.8807L55.7105 85.2535V73.6507H59.8049V92.4986H56.2762L47.15 80.5187V92.4986H43.0557V73.6507Z" fill="white"/>
<path d="M69.7986 77.4752H64.061V73.6507H79.6789V77.4752H73.9414V92.4986H69.7932V77.4752H69.7986Z" fill="white"/>
<path d="M83.9346 73.6507H98.1521V77.3405H88.056V81.165H96.9399V84.8548H88.056V88.814H98.2868V92.5038H83.9346V73.6507Z" fill="white"/>
<path d="M103.055 73.6507H107.526L112.482 81.6229L117.439 73.6507H121.91V92.4986H117.789V80.1955L112.482 88.2431H112.375L107.122 80.2709V92.4932H103.055V73.6507Z" fill="white"/>
<path d="M0.00539259 101.022H0.937389L6.50251 108.1V101.022H7.47222V109.856H6.6749L0.969712 102.611V109.856H0V101.022H0.00539259Z" fill="white"/>
<path d="M19.0659 101.022H25.4499V101.932H20.0626V104.948H24.8843V105.859H20.0626V108.951H25.5146V109.861H19.0659V101.022Z" fill="white"/>
<path d="M38.8532 101.943H35.874V101.022H42.8291V101.943H39.8499V109.856H38.8532V101.943Z" fill="white"/>
<path d="M53.0547 101.021H54.1429L56.6696 108.38L59.0939 100.995H59.9128L62.3371 108.38L64.8637 101.021H65.9089L62.7519 109.92H61.9061L59.4818 102.751L57.0467 109.92H56.2117L53.0547 101.021Z" fill="white"/>
<path d="M75.9561 105.46V105.433C75.9561 102.998 77.7877 100.865 80.476 100.865C83.1643 100.865 84.969 102.971 84.969 105.406V105.433C84.969 107.868 83.1373 110.001 80.4491 110.001C77.7608 110.006 75.9561 107.9 75.9561 105.46ZM83.9347 105.46V105.433C83.9347 103.424 82.4693 101.786 80.4491 101.786C78.4288 101.786 76.9904 103.402 76.9904 105.406V105.433C76.9904 107.442 78.4558 109.08 80.476 109.08C82.4909 109.085 83.9347 107.469 83.9347 105.46Z" fill="white"/>
<path d="M96.1641 101.022H99.9621C101.061 101.022 101.918 101.35 102.473 101.905C102.914 102.347 103.157 102.939 103.157 103.645V103.672C103.157 105.137 102.149 106.004 100.759 106.247L103.475 109.856H102.252L99.6873 106.424H97.1607V109.856H96.1641V101.022ZM99.8759 105.525C101.19 105.525 102.149 104.841 102.149 103.71V103.683C102.149 102.584 101.314 101.943 99.892 101.943H97.1661V105.525H99.8759Z" fill="white"/>
<path d="M114.378 101.022H115.375V106.295L120.45 101.022H121.748L117.95 104.884L121.899 109.856H120.649L117.255 105.579L115.375 107.486V109.861H114.378V101.022Z" fill="white"/>
</g>
<defs>
<linearGradient id="paint0_linear" x1="60.9804" y1="60.6221" x2="60.9804" y2="-9.09607" gradientUnits="userSpaceOnUse">
<stop offset="0.0858" stop-color="#8D29C1"/>
<stop offset="0.2383" stop-color="#942BBB"/>
<stop offset="0.4667" stop-color="#A92FAC"/>
<stop offset="0.7413" stop-color="#CA3793"/>
<stop offset="1" stop-color="#F03F77"/>
</linearGradient>
<clipPath id="clip0">
<rect width="121.902" height="110" fill="white"/>
</clipPath>
</defs>
</svg>
